DBRep_DrawableShape

CASCADE Topology V3, (c) Open Cascade
Locations 19
1
              1               0               0               0 
              0               1               0               0 
              0               0               1               0 
1
              1               0               0               0 
              0               1               0               0 
              0               0               1               0 
2  2 -1 0
1
              1               0               0               0 
              0               1               0               0 
              0               0               1               0 
2  4 -1 0
1
              1               0               0               0 
              0               1               0               0 
              0               0               1               0 
2  6 1 4 -1 2 1 0
2  4 1 6 -1 0
1
              1               0               0               0 
              0               1               0               0 
              0               0               1               3 
2  9 -1 4 1 6 -1 0
2  6 -1 0
2  6 1 4 -1 9 1 2 1 0
2  2 -1 9 -1 4 1 6 -1 0
2  4 -1 9 1 0
2  4 -1 9 1 2 1 0
2  4 -1 2 1 0
2  2 -1 9 -1 4 1 0
2  6 1 4 -1 0
2  6 1 4 -1 9 1 0
Curve2ds 14
1 1.490018137049067 -0.072237393128358904 0.14038584553084091 0.99009687120735368 
1 2.5939067779538716 -2.4489204494636989 -0.71404068008251786 -0.70010421166230352 
1 0 -0.70710678118654724 1 0 
1 1.3999999999999999 -2 -1 0 
8 -0.70710678118654724 0.70710678118654791
1 1.3999999999999999 0 0 1 
8 -0.70710678118654724 0.70710678118654791
1 0 0 0 1 
1 0 0.70710678118654791 1 0 
1 -1.0324833021945108e-16 0.63523405092051144 1 0 
1 0 0.70710678118654791 1 0 
1 -1.3999999999999999 0.63523405092051144 1 0 
1 0 -0.70710678118654724 1 0 
1 0 -2 1 0 
1 -0.1038138669868538 0.025059517366960438 -0.14038584553084091 0.99009687120735368 
1 2.5237379347221105 -2.5177197546634398 -0.71404068008251786 -0.70010421166230352 
Curves 19
1 1.3999999999999999 2.9922 0 0 0 1 
8 -0.64121946702448451 0.7871393163424012
1 1.490018137049067 2.5432795505363011 2.4489204494636989 0.14038584553084091 -0.70010421166230352 0.70010421166230352 
1 2 0 0 -0.19660762957457451 0.98048224868840284 0 
1 2 0 0 0 0 1 
1 0 2.9922 2 1 -0 -0 
1 1.3999999999999999 2.9922 0 -1 0 0 
1 0 2.9922 0 0 0 1 
1 0 2.4922 2.5 0 -0.70710678118654757 0.70710678118654757 
1 0 1.9922 3 1 -0 -0 
1 0 0 0 1 0 0 
1 -1.3999999999999999 2.9922 0 1 0 0 
1 -2 0 0 0.19660762957457451 0.98048224868840284 0 
1 0 0 0 -1 0 0 
1 -1.3999999999999999 1.9922 3 1 0 0 
1 0 0 0 0 0 1 
1 -1.3999999999999999 2.9922 0 0 0 1 
1 -1.3999999999999999 2.9922 2 1 0 0 
8 -0.73948955889607348 0.68886922447081234
1 -1.5038138669868537 2.4744802453365602 2.5177197546634398 -0.14038584553084091 -0.70010421166230352 0.70010421166230352 
1 -2 0 0 0 0 1 
Polygon3D 0
PolygonOnTriangulations 18
2 1 3 
p 0.0166536666666667 1 0 3.05176356227018 
2 2 4 
p 0.0166536666666667 1 0 3.05176356227018 
2 4 1 
p 0.0166536666666667 1 0 3.05176356227018 
2 1 2 
p 0.0166536666666667 1 0 3 
2 4 5 
p 0.0166536666666667 1 0 3 
2 1 3 
p 0.0166536666666667 1 0 1.4 
2 2 4 
p 0.0166536666666667 1 0 1.4 
2 1 4 
p 0.0166536666666667 1 0 1.4 
2 4 1 
p 0.0166536666666667 1 0 2 
2 1 3 
p 0.0166536666666667 1 0 1.4 
2 2 4 
p 0.0166536666666667 1 0 1.4 
2 1 4 
p 0.0166536666666667 1 0 1.4 
2 2 4 
p 0.0166536666666667 1 0 3.05176356227018 
2 1 3 
p 0.0166536666666667 1 0 3.05176356227018 
2 4 1 
p 0.0166536666666667 1 0 3.05176356227018 
2 4 6 
p 0.0166536666666667 1 0 2 
2 1 2 
p 0.0166536666666667 1 0 3 
2 4 5 
p 0.0166536666666667 1 0 3 
Surfaces 9
1 2 0 0 -0.98048224868840284 -0.19660762957457451 0 -0.19660762957457451 0.98048224868840284 0 -0 0 -1 
1 0 2.4922 2.5 0 -0.70710678118654757 -0.70710678118654757 1 0 0 0 -0.70710678118654757 0.70710678118654757 
1 1.3999999999999999 2.9922 0 0 -1 0 -1 0 0 -0 -0 -1 
1 -1.3999999999999999 2.9922 0 0 1 0 1 0 0 0 0 -1 
1 -1.3999999999999999 2.4922 2.5 0 0.70710678118654757 0.70710678118654757 1 0 -0 0 -0.70710678118654757 0.70710678118654757 
1 1.0324833021945108e-16 1.3569659490794885 0 0 0 1 1 0 -0 -0 1 0 
1 0 0 0 0 1 0 1 0 0 0 0 -1 
1 0 0 0 0 -1 0 -1 0 0 -0 -0 -1 
1 -2 0 0 -0.98048224868840284 0.19660762957457451 0 0.19660762957457451 0.98048224868840284 0 0 0 -1 
Triangulations 9
4 2 1 0 2.2377260456559e-16
2 0 0 2 0 3 1.4 2.9922 0 1.4 2.9922 3 0 0 0 -3 3.05176356227018 0 3.05176356227018 -3 3 1 2 3 2 4 
5 3 1 0 4.46036504397568e-16
1.4 2.9922 0 1.4 2.9922 2 1.60052135552436 1.9922 3 2 0 0 2 0 3 3.05176356227018 0 3.05176356227018 -2 2.03185728519306 -3 0 0 0 -3 4 5 3 2 4 3 1 4 2 
4 2 1 0 1.11022302462516e-16
1.4 2.9922 0 1.4 2.9922 3 0 2.9922 0 0 2.9922 3 0 0 0 -3 1.4 0 1.4 -3 3 1 2 3 2 4 
4 2 1 0 0
1.4 2.9922 0 1.4 2.9922 2 0 2.9922 2 0 2.9922 0 0 0 0 -2 1.4 -2 1.4 0 4 1 2 4 2 3 
6 4 1 0 2.96059473233375e-16
2 0 0 1.60052135552436 1.9922 4.44089209850063e-16 0 1.9922 4.44089209850063e-16 0 0 0 -1.60052135552436 1.9922 4.44089209850063e-16 -2 0 0 2 -1.35696594907949 1.60052135552436 0.635234050920511 0 0.635234050920511 0 -1.35696594907949 -1.60052135552436 0.635234050920511 -2 -1.35696594907949 5 6 4 3 5 4 2 4 1 2 3 4 
4 2 1 0 1.11022302462516e-16
-1.4 2.9922 0 -1.4 2.9922 3 0 2.9922 0 0 2.9922 3 0 0 0 -3 1.4 0 1.4 -3 3 1 2 3 2 4 
4 2 1 0 0
-1.4 2.9922 0 -1.4 2.9922 2 0 2.9922 2 0 2.9922 0 0 0 0 -2 1.4 -2 1.4 0 4 1 2 4 2 3 
4 2 1 0 2.2377260456559e-16
-2 0 0 -2 0 3 -1.4 2.9922 0 -1.4 2.9922 3 0 0 0 -3 3.05176356227018 0 3.05176356227018 -3 3 1 2 3 2 4 
5 3 1 0 1.15277563368905e-16
-1.4 2.9922 0 -1.4 2.9922 2 -1.60052135552436 1.9922 3 -2 0 0 -2 0 3 3.05176356227018 0 3.05176356227018 -2 2.03185728519305 -3 0 0 0 -3 4 5 3 2 4 3 1 4 2 

TShapes 65
Ve
0.0001
1.4 2.9922 2
0 0

0101101
*
Ve
1e-07
1.4 2.9922 0
0 0

0101101
*
Ed
 1e-07 1 1 0
1  1 0 0 2
0

0101000
-65 3 +64 5 *
Ve
0.0001
1.60052135552436 1.9922 3
0 0

0101101
*
Ed
 1e-07 1 1 0
1  2 0 -0.641219467024485 0.787139316342401
2  1 2 0 -0.641219467024485 0.787139316342401
2  2 1 2 -0.641219467024485 0.787139316342401
0

0101000
+65 0 -62 0 *
Ve
1e-07
2 0 0
0 0

0101101
*
Ed
 1e-07 1 1 0
1  3 0 0 3.05176356227018
6  1 1 8
6  2 1 10
6  3 2 8
0

0101000
+60 11 -64 11 *
Ed
 1e-07 1 1 0
1  3 0 0 2.03185728519305
0

0101000
-62 13 +60 11 *
Ed
 1e-07 1 1 0
1  4 0 0 3
6  4 1 0
6  5 2 0
0

0101000
+60 5 -60 14 *
Wi

0101100
-63 2 -61 0 -59 7 +58 12 +57 2 *
Fa
0  1e-07 1 0

0101000
+56 3 *
Ve
1e-07
0 2.9922 2
0 0

0101101
*
Ed
 1e-07 1 1 0
1  5 0 -0 1.4
2  3 2 0 -0 1.4
2  4 3 2 -0 1.4
0

0101000
+54 0 -65 0 *
Ve
1e-07
0 2.9922 0
0 0

0101101
*
Ed
 1e-07 1 1 0
1  6 0 0 1.4
6  6 3 8
6  7 3 10
6  8 4 8
0

0101000
+64 11 -52 11 *
Ed
 1e-07 1 1 0
1  7 0 0 2
4 C2 3 0 4 0
0

0101000
-54 3 +52 5 *
Wi

0101100
+63 2 -53 0 -51 7 -50 2 *
Fa
0  1e-07 3 0

0101000
+49 3 *
Ve
1e-07
0 1.9922 3
0 0

0101101
*
Ed
 1e-07 1 1 0
1  8 0 -0.707106781186547 0.707106781186548
2  5 5 0 -0.707106781186547 0.707106781186548
2  6 2 0 -0.707106781186547 0.707106781186548
4 G1 5 0 2 0
0

0101000
+54 0 -47 0 *
Ed
 1e-07 1 1 0
1  9 0 -0 1.60052135552436
2  7 2 0 -0 1.60052135552436
2  8 6 15 -0 1.60052135552436
0

0101000
+47 0 -62 0 *
Wi

0101100
-46 0 +53 0 -45 0 +61 0 *
Fa
0  0 2 0

0101000
+44 0 *
Ve
1e-07
0 0 0
0 0

0101101
*
Ed
 1e-07 1 1 0
1  10 0 0 2
6  9 5 11
0

0101000
+42 11 -60 11 *
Ve
1e-07
-1.4 2.9922 0
0 0

0101101
*
Ed
 1e-07 1 1 0
1  11 0 0 1.4
6  10 6 8
6  11 6 10
6  12 7 8
0

0101000
+40 11 -52 11 *
Ve
1e-07
-2 0 0
0 0

0101101
*
Ed
 1e-07 1 1 0
1  12 0 0 3.05176356227018
6  13 8 10
6  14 8 8
6  15 9 8
0

0101000
+38 11 -40 11 *
Ed
 1e-07 1 1 0
1  13 0 0 2
6  16 5 11
0

0101000
+42 11 -38 11 *
Wi

0101100
+41 0 +59 0 +51 0 -39 0 -37 0 -36 0 *
Fa
0  1e-07 6 0

0101000
+35 6 *
Ve
0.0001
-1.60052135552436 1.9922 3
0 0

0101101
*
Ed
 1e-07 1 1 0
1  14 0 -0.200521355524363 1.4
2  9 5 0 -0.200521355524363 1.4
2  10 6 15 -0.200521355524363 1.4
0

0101000
+33 0 -47 0 *
Ed
 1e-07 1 1 0
1  12 0 0 2.03185728519305
0

0101000
-33 13 +38 11 *
Wi

0101100
+58 12 -45 0 +41 12 -32 0 -36 12 -31 12 *
Fa
0  1e-07 6 0

0101000
+30 17 *
Ed
 1e-07 1 1 0
1  15 0 0 3
4 C2 7 0 8 0
0

0101000
+42 5 -42 14 *
Wi

0101100
+28 0 -57 0 -41 18 +41 19 *
Fa
0  1e-07 7 0

0101000
+27 0 *
Ve
0.0001
-1.4 2.9922 2
0 0

0101101
*
Ed
 1e-07 1 1 0
1  16 0 0 2
0

0101000
-25 3 +40 5 *
Ed
 1e-07 1 1 0
1  17 0 0 1.4
2  11 5 0 0 1.4
2  12 4 2 0 1.4
0

0101000
+25 0 -54 0 *
Wi

0101100
+24 2 +23 0 -39 7 -50 2 *
Fa
0  1e-07 4 0

0101000
+22 3 *
Ed
 1e-07 1 1 0
1  18 0 -0.739489558896073 0.688869224470812
2  13 5 0 -0.739489558896073 0.688869224470812
2  14 9 2 -0.739489558896073 0.688869224470812
0

0101000
+25 0 -33 0 *
Wi

0101100
-20 0 +23 0 -32 0 +46 0 *
Fa
0  0 5 0

0101000
+19 0 *
Ed
 1e-07 1 1 0
1  19 0 0 3
6  17 8 0
6  18 9 0
0

0101000
+38 5 -38 14 *
Wi

0101100
-24 2 -20 0 -37 7 +31 12 +17 2 *
Fa
0  1e-07 9 0

0101000
+16 3 *
Wi

0101100
+28 0 -17 0 -36 18 +36 19 *
Fa
0  1e-07 8 0

0101000
+14 0 *
Sh

0101100
-55 2 -48 2 -43 0 -34 16 +29 15 -26 2 +21 2 -18 0 +15 2 +13 2 
*
So

0100000
+12 0 *
Ve
1e-07
0 1 1.2
0 0

0101101
*
Ve
1e-07
0 1 1.35
0 0

0101101
*
Ve
1e-07
0 1.15 1.2
0 0

0101101
*
Ve
1e-07
0.15 1 1.2
0 0

0101101
*
Ve
1e-07
0 1 1.05
0 0

0101101
*
Ve
1e-07
0 0.85 1.2
0 0

0101101
*
Ve
1e-07
-0.15 1 1.2
0 0

0101101
*
Ve
1e-07
-1 2.25 1.2
0 0

0101101
*
Ve
1e-07
1 2.25 1.2
0 0

0101101
*
Co

1100000
+11 1 +10 0 +9 0 +8 0 +7 0 +6 0 +5 0 +4 0 +3 0 +2 0 
*

+1 0 